<svg xmlns="http://www.w3.org/2000/svg" width="230" height="230" viewBox="0 0 230 230" fill="none">
<path fill-rule="evenodd" clip-rule="evenodd" d="M0 0H230V230H203.169C206.396 198.23 190.918 162.967 190.918 162.967C186.997 154.25 166.557 146.504 159.515 144.058C148.578 120.104 154.491 89.8592 154.491 89.8592C152.555 98.4524 150.074 101.746 150.074 101.746C148.151 117.293 135.472 130.097 135.472 130.097C135.258 134.273 135.782 137.822 136.767 140.847C117.196 172.484 101.181 155.931 93.2771 143.024C94.7862 139.544 95.7027 135.32 95.4271 130.097C95.4271 130.097 82.7474 117.293 80.811 101.746C80.811 101.746 78.3508 98.4524 76.4213 89.8592C76.4213 89.8592 82.3064 120.001 71.4321 143.941C63.0111 147.552 54.535 150.115 54.535 150.115C45.3836 153.637 41.5039 158.908 41.5039 158.908C27.9766 178.975 26.3916 223.671 26.3916 223.671C26.439 226.372 26.7802 228.431 27.2566 230H0V0ZM151.685 87.2403C140.852 82.6095 137.613 72.3279 137.076 70.3225C136.469 70.8807 115.555 89.3008 75.5103 85.5175C75.5103 85.5175 69.5563 55.9132 90.8499 42.2136C90.8499 42.2136 119.903 24.9788 145.579 47.63L145.51 47.7747C157.811 57.8565 154.986 84.8698 154.986 84.8698C154.593 83.2917 153.263 82.6301 153.263 82.6301C152.085 83.0298 151.685 87.2403 151.685 87.2403Z" fill="#ADADAD"/>
<rect x="0.5" y="0.5" width="229" height="229" stroke="#ADADAD"/>
</svg>