<svg width="166" height="52" viewBox="0 0 166 52" fill="none" xmlns="http://www.w3.org/2000/svg">
<path d="M6.13344 34.2467H1.82764V19.5399H5.63781V21.2557C6.11279 20.7042 6.76331 20.214 7.58936 19.7851C8.41542 19.3357 9.34473 19.111 10.3773 19.111C12.4218 19.111 13.9397 19.8361 14.9309 21.2864C16.4385 19.8361 18.0906 19.111 19.8872 19.111C21.7872 19.111 23.1811 19.7034 24.0691 20.8881C24.9778 22.0524 25.4321 23.4005 25.4321 24.9324V34.2467H21.1573V25.2082C21.1573 24.4524 20.9405 23.8601 20.5068 23.4311C20.0938 23.0022 19.5362 22.7877 18.834 22.7877C17.7395 22.7877 16.7586 23.2779 15.8912 24.2584C15.9119 24.4013 15.9222 24.626 15.9222 24.9324V34.2467H11.6474V25.2082C11.6474 24.4524 11.4305 23.8601 10.9968 23.4311C10.5838 23.0022 10.0262 22.7877 9.32408 22.7877C8.10565 22.7877 7.0421 23.38 6.13344 24.5648V34.2467Z" fill="#333333"/>
<path d="M35.5437 29.467L39.23 19.5399H43.6907L37.0926 36.0238C35.6263 39.5983 33.4889 41.3856 30.6803 41.3856C30.0814 41.3856 29.307 41.2733 28.357 41.0486V37.5251C29.0385 37.6681 29.6271 37.7396 30.1227 37.7396C31.6922 37.7396 32.8694 36.6672 33.6541 34.5225L33.6851 34.4612L26.6533 19.5399H31.2069L35.5437 29.467Z" fill="#333333"/>
<g clip-path="url(#clip0_131_2211)">
<path d="M70.8421 16.0775L52.6725 7.68359C52.2979 7.51086 51.8803 7.45038 51.4714 7.50962C50.1851 7.68792 49.0065 8.94964 49.004 10.4813L48.9332 48.1044C48.9332 49.6559 50.1225 50.5684 51.3962 50.3913C51.882 50.3239 52.3802 50.0979 52.829 49.6899L68.1675 35.7349L61.5227 32.665C59.9774 31.9528 59.2544 30.48 59.183 29.0956C59.1119 27.7154 59.6567 26.2535 60.8127 25.202L70.8421 16.0775Z" fill="url(#paint0_radial_131_2211)"/>
<path d="M90.9805 0.906965C92.2561 0.729903 93.4466 1.64245 93.4435 3.19391L93.3734 40.817C93.3702 42.3474 92.1916 43.6091 90.906 43.7887C90.497 43.848 90.0794 43.7875 89.7048 43.6147L62.3237 30.9647C60.7589 30.2435 60.64 27.9076 62.0965 26.5827L89.5477 1.6084C89.9971 1.20042 90.4947 0.974446 90.9805 0.906965Z" fill="url(#paint1_radial_131_2211)"/>
</g>
<path d="M104.627 34.2467H100.321V19.5399H104.627V34.2467ZM104.999 14.6683C104.999 15.4649 104.761 16.0675 104.286 16.476C103.811 16.8846 103.202 17.0888 102.459 17.0888C101.736 17.0888 101.137 16.8846 100.662 16.476C100.187 16.0675 99.9496 15.4649 99.9496 14.6683C99.9496 13.8921 100.187 13.2998 100.662 12.8913C101.137 12.4827 101.736 12.2785 102.459 12.2785C103.181 12.2785 103.78 12.4827 104.255 12.8913C104.751 13.2998 104.999 13.8921 104.999 14.6683Z" fill="#333333"/>
<path d="M109.452 15.2505L113.727 14.2394V19.5399H118.436V23.1247H113.727V28.8849C113.727 30.3555 114.522 31.0909 116.112 31.0909C117.062 31.0909 117.961 30.9275 118.807 30.6007V34.0322C117.568 34.4612 116.236 34.6757 114.811 34.6757C113.242 34.6757 111.951 34.2774 110.939 33.4807C109.948 32.6841 109.452 31.4279 109.452 29.7121V23.1247H106.943V19.5399H109.452V15.2505Z" fill="#333333"/>
<path d="M125.59 34.2467H121.284V19.5399H125.095V21.2557C125.57 20.7042 126.22 20.214 127.046 19.7851C127.872 19.3357 128.802 19.111 129.834 19.111C131.879 19.111 133.397 19.8361 134.388 21.2864C135.895 19.8361 137.547 19.111 139.344 19.111C141.244 19.111 142.638 19.7034 143.526 20.8881C144.435 22.0524 144.889 23.4005 144.889 24.9324V34.2467H140.614V25.2082C140.614 24.4524 140.397 23.8601 139.964 23.4311C139.551 23.0022 138.993 22.7877 138.291 22.7877C137.196 22.7877 136.215 23.2779 135.348 24.2584C135.369 24.4014 135.379 24.626 135.379 24.9324V34.2467H131.104V25.2082C131.104 24.4524 130.887 23.8601 130.454 23.4311C130.041 23.0022 129.483 22.7877 128.781 22.7877C127.562 22.7877 126.499 23.38 125.59 24.5648V34.2467Z" fill="#333333"/>
<path d="M149.938 32.6228C148.348 31.2543 147.553 29.3445 147.553 26.8933C147.553 24.4422 148.348 22.5324 149.938 21.1638C151.528 19.7953 153.47 19.111 155.762 19.111C158.075 19.111 160.016 19.7953 161.586 21.1638C163.176 22.5324 163.971 24.4422 163.971 26.8933C163.971 29.3445 163.176 31.2543 161.586 32.6228C160.016 33.9914 158.075 34.6757 155.762 34.6757C153.47 34.6757 151.528 33.9914 149.938 32.6228ZM158.581 29.7734C159.262 29.0176 159.603 28.0576 159.603 26.8933C159.603 25.729 159.262 24.7792 158.581 24.0439C157.899 23.2881 156.96 22.9102 155.762 22.9102C154.564 22.9102 153.624 23.2881 152.943 24.0439C152.282 24.7792 151.952 25.729 151.952 26.8933C151.952 28.0576 152.282 29.0176 152.943 29.7734C153.624 30.5087 154.564 30.8764 155.762 30.8764C156.96 30.8764 157.899 30.5087 158.581 29.7734Z" fill="#333333"/>
<defs>
<radialGradient id="paint0_radial_131_2211" cx="0" cy="0" r="1" gradientUnits="userSpaceOnUse" gradientTransform="translate(114.559 17.6014) rotate(173.014) scale(65.9917 25.1925)">
<stop stop-color="#E02E2E"/>
<stop offset="1" stop-color="#EE215B"/>
</radialGradient>
<radialGradient id="paint1_radial_131_2211" cx="0" cy="0" r="1" gradientUnits="userSpaceOnUse" gradientTransform="translate(48.8402 33.4259) rotate(-9.87552) scale(45.2207 25.6163)">
<stop stop-color="#0091FF"/>
<stop offset="1" stop-color="#1846C7"/>
</radialGradient>
<clipPath id="clip0_131_2211">
<rect width="50.5747" height="50.023" fill="white" transform="translate(45.9914 0.6375)"/>
</clipPath>
</defs>
</svg>
